<?xml version="1.0" standalone="no"?>
<!DOCTYPE svg PUBLIC "-//W3C//DTD SVG 20010904//EN"
 "http://www.w3.org/TR/2001/REC-SVG-20010904/DTD/svg10.dtd">
<svg version="1.0" xmlns="http://www.w3.org/2000/svg"
 width="512.000000pt" height="512.000000pt" viewBox="0 0 512.000000 512.000000"
 preserveAspectRatio="xMidYMid meet">

<g transform="translate(0.000000,512.000000) scale(0.100000,-0.100000)"
fill="#000000" stroke="none">
<path d="M270 1861 c0 -18 -65 -49 -116 -56 -64 -8 -108 -34 -131 -77 -16 -30
-18 -65 -18 -375 0 -329 1 -343 21 -369 11 -15 33 -37 48 -48 27 -21 38 -21
732 -24 l704 -3 0 248 c0 230 2 250 20 281 28 45 76 72 130 72 54 0 102 -27
130 -72 18 -31 20 -51 20 -281 l0 -247 1604 2 c1603 3 1605 3 1632 24 15 11
37 33 48 48 20 26 21 40 21 369 0 310 -2 345 -18 375 -23 43 -67 69 -131 77
-51 7 -116 38 -116 56 0 5 -224 9 -552 9 l-553 0 -20 -37 c-29 -54 -77 -83
-137 -83 -40 0 -68 10 -161 60 l-114 60 -153 0 -153 0 -113 -60 c-94 -50 -121
-60 -162 -60 -60 0 -108 29 -137 83 l-20 37 -396 0 c-323 0 -398 -3 -402 -13
-8 -22 -71 -47 -117 -47 -46 0 -109 25 -117 47 -4 11 -118 13 -639 13 -378 0
-634 -4 -634 -9z"/>
</g>
</svg>
